ply
format ascii 1.0
comment Exported by Aspose.3D 21.11
element vertex 178
property float x
property float y
property float z
property float nx
property float ny
property float nz
property float u
property float v
element face 352
property list uchar int vertex_index
end_header
0.5885308980941772 2.146871566772461 14.805624961853027 0.07501197870199879 0.9690941075483958 -0.22252241522073746 0.69140625 0.9049479166666666
2.9546709060668945 1.25784170627594 11.931100845336914 0.23920100927352905 0.9357098241647084 -0.208867988238732 0.5551535785198212 0.5744566768407822
-0.4779612421989441 1.5588651895523071 11.885576248168945 -0.01915273698978126 0.9765637417634327 -0.17768506457408267 0.7513020833333333 0.91796875
1.5551044940948486 1.1633025407791138 9.265357971191406 0.20115145908979076 0.9341907699902852 -0.2089473468561967 0.5491104523340861 0.446893831094106
-1.3202213048934937 1.022352933883667 8.484552383422852 -0.2044340348802507 0.9392485618591309 -0.21081633244951564 0.6939453681310017 0.6811097115278244
3.9724647998809814 1.4432417154312134 14.041397094726562 0.21632842868566515 0.931409502029419 -0.27459619641304017 0.5987756490707398 0.6545015811920166
5.807187080383301 3.378239870071411 20.65433692932129 0.13327021263539793 0.9478964686393738 -0.2734236925840378 0.671875 0.8984375
8.594152450561523 1.6019669771194458 17.264793395996094 0.33212235867977147 0.8541047215461731 -0.38002153635025027 0.7132946193218231 0.7861461102962495
6.118919372558594 2.440446138381958 17.781789779663086 0.18124154955148697 0.9237482647101084 -0.3283691306908925 0.7135416666666666 0.8984375
6.329031467437744 1.329771637916565 15.361459732055664 0.2457853431502978 0.8894281884034474 -0.3751939833164215 0.6440453926722208 0.7024859984715779
9.126559257507324 2.303828001022339 19.875064849853516 0.23616260077272141 0.8964086174964905 -0.3484863426004137 0.6115322113037109 0.6977041448865617
9.56965446472168 4.733126640319824 27.265914916992188 0.11846981620016907 0.9689175231116158 -0.15136513380067687 0.671875 0.8984375
13.321598052978516 2.452589511871338 23.694454193115234 0.47007069587707523 0.7818138003349304 -0.37930464148521426 0.4403044581413269 0.4598816752433777
10.772689819335938 3.3499107360839844 23.47030258178711 0.218906848380963 0.9135406613349915 -0.3204301968216896 0.66015625 0.7565104166666666
11.43780517578125 2.5162343978881836 21.1492919921875 0.34713784605264664 0.8232205986976624 -0.386625212430954 0.5425270318984986 0.5595402836799622
13.560375213623047 3.5972447395324707 25.94222068786621 0.4280484889944394 0.8158725798130035 -0.28342712484300137 0.5666466156641642 0.6787818272908528
16.0001220703125 2.3900673389434814 30.232810974121094 0.6269887506961823 0.7266982197761536 0.10454889014363289 0.45996193885803227 0.5612210631370544
13.043384552001953 4.124844074249268 27.813648223876953 0.40632645537455875 0.8788911898930867 -0.06363932974636555 0.703125 0.8515625
10.539802551269531 4.265357971191406 32.40228271484375 0.0940813459455967 0.9150972962379456 0.33474215368429816 0.640625 0.75
13.54891586303711 2.5822830200195312 34.375389099121094 0.33288150280714035 0.7164014478524525 0.540339320898056 0.4984710365533829 0.5883418967326481
13.36294937133789 3.5059423446655273 32.336830139160156 0.42318157851696014 0.8483372330665588 0.22818366810679436 0.5361272394657135 0.6502932210763295
8.938016891479492 2.526545763015747 35.69270324707031 -0.026092007756233215 0.7265423774719239 0.636234450340271 0.6377516508102418 0.7030354082584381
7.424825668334961 3.00101375579834 34.54026794433594 -0.12933138012886047 0.8342820207277933 0.49736957748730976 0.5776339371999104 0.6640365024407704
5.609553337097168 4.10609245300293 31.654903411865234 -0.17670326307415962 0.9212800025939942 0.31323776543140414 0.7171875000000001 0.8031250000000001
5.277011871337891 3.126406669616699 33.90699005126953 -0.26621564701199535 0.7533758997917176 0.5499086439609527 0.6458807110786439 0.6995184063911438
6.884092330932617 4.7660722732543945 26.541561126708984 -0.017821631208062173 0.9836831212043763 -0.0995474435389042 0.671875 0.8984375
7.709949493408203 3.999706268310547 23.525615692138672 0.12217457188914219 0.9476198057333628 -0.2784564644098282 0.69140625 0.9049479166666666
-6.846198081970215 4.7660722732543945 26.9310245513916 0.014393629572753395 0.9889254144259861 -0.05295873758898648 0.671875 0.8984375
-3.0384302139282227 3.5739572048187256 31.864791870117188 0.30641350895166397 0.7805465559164683 0.46353823443253833 0.6692708333333333 0.7135416666666666
-8.149742126464844 3.5049619674682617 33.857975006103516 0.10710910558700562 0.8254570364952087 0.5134255707263947 0.7093750000000001 0.8453125
-6.025554656982422 4.397504806518555 30.884597778320312 0.11269391434533255 0.9490471141678946 0.24474320986441203 0.6707589285714285 0.8191964285714285
-12.980537414550781 2.392930030822754 34.859710693359375 -0.3079668655991554 0.7614777386188507 0.5192934821049372 0.696117599805196 0.7601371804873148
-10.493762969970703 2.498387336730957 35.4359130859375 -0.058686861147483185 0.7350769539674122 0.6344443311293919 0.6527678569157918 0.6925220439831415
-12.937061309814453 4.20843505859375 30.81757926940918 -0.23913794606924058 0.9292043685913086 0.19513736963272096 0.721875 0.8984375
-8.949634552001953 4.741123199462891 29.544403076171875 0.007439675275236368 0.994029313325882 0.07019898854196072 0.671875 0.8984375
-15.898567199707031 2.5679450035095215 27.046119689941406 -0.6081530451774597 0.7355828781922658 -0.18865668090681234 0.6761453449726105 0.4846593638261159
-10.781585693359375 4.699517250061035 27.84051513671875 -0.11739778673897186 0.9801353613535563 -0.04787527769804001 0.671875 0.8984375
-13.95479965209961 2.2719578742980957 23.896392822265625 -0.4281669954458872 0.8170037567615509 -0.36606750885645545 0.6442378362019856 0.5443553328514099
-10.710735321044922 4.193469047546387 25.712656021118164 -0.22833045359168733 0.9280854974474225 -0.2624330978308405 0.671875 0.8984375
-12.020021438598633 2.545004367828369 22.6154727935791 -0.36711383461952213 0.8495470046997071 -0.369697242975235 0.684737765789032 0.7926589727401734
-7.0252532958984375 3.0491819381713867 20.10173225402832 -0.15763476490974426 0.9279509782791138 -0.3271404355764389 0.6505492925643921 0.7095506191253662
-8.9443941116333 1.7559553384780884 17.656265258789062 -0.3057700842618942 0.8696475227673848 -0.3620610584815343 0.6141444941361744 0.4058579007784525
-7.888362884521484 4.357943534851074 24.464168548583984 -0.0763802113942802 0.9688973426818848 -0.21207044273614883 0.671875 0.8984375
-3.683774948120117 0.9862801432609558 11.46005630493164 -0.25759087006251014 0.91872705022494 -0.2696586176753044 0.6543405850728352 0.5852168649435043
-2.5847983360290527 3.9908697605133057 22.611204147338867 0.004535301976526776 0.9797296027342478 -0.19506121923526126 0.73046875 0.91796875
-3.1487464904785156 3.1867856979370117 19.5341796875 -0.05141568955566202 0.9623359271458216 -0.259198676262583 0.6833043353898184 0.8217079213687352
0.5051388740539551 2.8382797241210938 17.94681739807129 0.008226840892651428 0.9682607452074686 -0.24561635653177896 0.671875 0.8984375
0.8622211217880249 3.687838554382324 21.041519165039062 -0.004702558474881308 0.9742939472198486 -0.2190362193754741 0.6886160714285714 0.9040178571428571
-2.9320619106292725 2.2987022399902344 15.437420845031738 -0.09470494173001498 0.9612290603773934 -0.24053437582084108 0.6369262763432094 0.646290864263262
1.8295211791992188 4.459661483764648 27.44193458557129 -0.0899386927485466 0.9535242080688477 0.20705781420692804 0.7296875 0.8625
-0.1039552092552185 4.077747344970703 23.482717514038086 -0.021924526430666447 0.9847144037485123 -0.16690102964639664 0.701171875 0.908203125
3.516145706176758 2.331615924835205 16.51276397705078 0.11294901448612411 0.9412675698598225 -0.3062613978981972 0.69140625 0.9049479166666666
3.468080520629883 3.250025749206543 19.34661293029785 0.05445760302245617 0.960188070933024 -0.2665870413184166 0.671875 0.8984375
11.050947189331055 4.674591064453125 29.16061782836914 0.17485807510092854 0.9699384808540344 0.06443504318594932 0.671875 0.8984375
-3.2603912353515625 4.3171916007995605 28.74591636657715 0.12751687162866193 0.9744493067264557 0.13078882266321062 0.73046875 0.91796875
-0.1445302963256836 3.4260923862457275 29.78212547302246 0.04643111738065878 0.8385707934697468 0.4003591810663541 0.6782068014144897 0.7402244855960209
1.5799927711486816 2.6901092529296875 31.53185272216797 -0.3104121847344296 0.7987981268337794 0.45669768112046377 0.6442353299685887 0.6968703695705959
-4.961885452270508 2.8113632202148438 33.742530822753906 0.2342746213078499 0.7546093225479127 0.582197391986847 0.6311156034469605 0.636694484949112
-9.00814151763916 3.6017253398895264 22.553529739379883 -0.21325469389557838 0.9152520398298899 -0.3267584989468256 0.671875 0.8984375
-10.808533668518066 2.1319375038146973 20.415109634399414 -0.35906995832920074 0.8488961756229401 -0.37139209608236945 0.6557466586430867 0.6202976355950037
-0.14682769775390625 4.482908248901367 25.863969802856445 -0.007259960020227091 0.9785450867244175 0.006348351282732827 0.7555803571428571 0.9263392857142857
-10.01214599609375 4.52529239654541 31.406654357910156 -0.0695639183478696 0.9421851634979248 0.2703426725098065 0.671875 0.8984375
-16.021392822265625 2.6734414100646973 31.858047485351562 -0.5480052530765533 0.7402175863583882 0.2203660396238168 0.725119024515152 0.6749053100744883
-13.205738067626953 4.257045745849609 28.568071365356445 -0.3447252089778582 0.9068896869818369 -0.13072228742142517 0.6761176784833272 0.7368804514408112
-7.366324424743652 1.6033092737197876 16.088096618652344 -0.2681540213525295 0.8840116709470749 -0.3584817349910736 0.6765753626823425 0.6012345552444458
-5.864195823669434 1.4173213243484497 14.516889572143555 -0.27324922631184256 0.8951009809970856 -0.3331131637096405 0.582255611817042 0.38083671530087787
-5.764737129211426 3.9106972217559814 22.333101272583008 -0.05072582319068412 0.9609983464082081 -0.26102571934461594 0.671875 0.8984375
4.985346794128418 4.072114944458008 23.468223571777344 0.01961454642670495 0.9767206481524876 -0.18983740572418484 0.671875 0.8984375
-3.9570465087890625 4.402834892272949 24.856748580932617 0.02080207255979379 0.9877255062262217 -0.11468767902018347 0.69140625 0.9049479166666666
2.409358024597168 4.4789204597473145 24.80063247680664 -0.005220073818539579 0.9879102011521657 -0.11053702623272935 0.69140625 0.9049479166666666
-5.778234004974365 2.31427264213562 17.482223510742188 -0.16054567446311313 0.9438662926355997 -0.2831867213050524 0.5804142753283182 0.41153165201346076
4.602866172790527 4.60841178894043 28.54613494873047 -0.11085394663470131 0.9649672252791268 0.09377208059387547 0.7220982142857142 0.9151785714285714
9.066768646240234 4.602392196655273 31.07260513305664 -0.031808119998978715 0.9710024765559605 0.17292108546410287 0.7053571428571428 0.9095982142857142
-0.20469507575035095 0.6211510300636292 5.971258163452148 -0.005622922815382481 0.9303959131240845 -0.2203962028026581 0.541585111618042 0.3358057260513306
-0.17189273238182068 3.906898200511932E-06 2.6180267333984375 -0.005122721195220947 0 -0.1724584996700287 0.5572675913572311 0.3471807539463043
-0.20469507575035095 -0.6211432814598083 5.971258163452148 -0.005622966401278973 -0.9303959369659425 -0.22039612829685212 0.4777626395225525 0.1912415325641632
1.6218467950820923 3.891997039318085E-06 5.971202850341797 0.343540092309316 9.934107462565104E-09 -0.2593269695838292 0.5140491475661595 0.3117112467686335
1.5551044940948486 -1.1632946729660034 9.265357971191406 0.20115139971797663 -0.9341907799243927 -0.2089473394056161 0.5491104523340861 0.446893831094106
3.8622305393218994 3.906898200511932E-06 9.04699993133545 0.3870125512282053 0 -0.27735842764377594 0.49332145849863684 0.33695228646198905
-4.206125736236572 3.906898200511932E-06 9.046935081481934 -0.3597879608472188 -4.9670537312825516E-08 -0.28028396268685657 0.6595312058925629 0.5677960515022278
-1.3202213048934937 -1.0223444700241089 8.484552383422852 -0.20443406685565907 -0.9392486214637756 -0.21081626539429027 0.5519532362620035 0.4403444230556488
-1.965506911277771 3.891997039318085E-06 5.971309661865234 -0.338004007935524 -9.934107462565104E-09 -0.24293653666973114 0.5472388019164403 0.3117121408383051
8.594152450561523 -1.6019586324691772 17.264795303344727 0.33212241828441624 -0.854104769229889 -0.3800214290618897 0.5461338579654694 0.5490633308887481
8.982284545898438 3.891997039318085E-06 14.6741943359375 0.3612402230501175 -6.953875223795572E-08 -0.4116216997305552 0.5161361893018086 0.48931731780370075
6.329031467437744 -1.3297637701034546 15.361459732055664 0.24578540275494257 -0.8894282579421997 -0.37519393364588416 0.5341845353444417 0.4974199136098226
13.321598052978516 -2.4525818824768066 23.694454193115234 0.47007069587707523 -0.7818138122558594 -0.379304575920105 0.6091613054275513 0.6946086168289185
14.113903045654297 3.906898200511932E-06 20.293128967285156 0.5505940516789753 0 -0.41447797417640686 0.6375148097674052 0.7201342980066935
11.43780517578125 -2.5162267684936523 21.1492919921875 0.34713774621486665 -0.8232205986976624 -0.38662522435188296 0.7072010159492493 0.7961763918399811
10.772689819335938 -3.349903106689453 23.47030258178711 0.21890683099627495 -0.9135406712690989 -0.3204302365581194 0.6608773867289225 0.8119214177131653
16.28124237060547 3.906898200511932E-06 23.41921043395996 0.5923766295115153 -1.9868214925130207E-08 -0.3668292462825775 0.46211312214533484 0.5467290480931599
13.560375213623047 -3.5972366333007812 25.94222068786621 0.4280485833684603 -0.8158726096153259 -0.28342693112790585 0.6765524744987488 0.8211617469787598
16.449447631835938 4.383735358715057E-06 34.09444046020508 0.6277351826429367 3.725290298461914E-08 0.3900980092585087 0.4188672825694084 0.5796565935015678
16.0001220703125 -2.3900580406188965 30.232812881469727 0.6269886732101441 -0.7266982793807983 0.10454896464943886 0.5972662925720215 0.7205015420913696
13.36294937133789 -3.505934238433838 32.336830139160156 0.42318160335222876 -0.8483371933301289 0.22818367183208466 0.65608445306619 0.8290528605381647
9.56965446472168 -4.733119487762451 27.265914916992188 0.11846963582294327 -0.968917497566768 -0.15136482140847615 0.671875 0.8984375
13.043384552001953 -4.124835014343262 27.813648223876953 0.40632670124371845 -0.8788912296295166 -0.06363925027350584 0.734375 0.90625
8.938016891479492 -2.5265378952026367 35.69270324707031 -0.02609216570854187 -0.7265424966812134 0.6362342894077302 0.6286283016204834 0.7357583165168763
13.54891586303711 -2.582274913787842 34.375389099121094 0.33288150280714035 -0.7164014776547749 0.5403393109639485 0.6187723577022552 0.7611515422662098
10.539802551269531 -4.2653489112854 32.40228271484375 0.09408080826203027 -0.9150974253813425 0.3347419649362564 0.7135416666666666 0.8984375
6.26204252243042 4.36883419752121E-06 37.07304382324219 -0.22589683439582586 2.2351741790771484E-08 0.7295947968959808 0.6502847000956535 0.7578591071069241
7.424825668334961 -3.001004695892334 34.54026794433594 -0.12933124726017314 -0.8342821498711903 0.49736932416756946 0.7552083333333333 0.9036458333333333
1.5799927711486816 -2.6901001930236816 31.53185272216797 -0.3104121409622686 -0.798798143863678 0.45669765983309063 0.614790494952883 0.7088100186416081
-0.16582117974758148 3.906898200511932E-06 33.15852355957031 0.028113603591918945 -6.705522537231445E-08 0.6215401589870453 0.5902280211448669 0.6083919554948807
2.796656608581543 3.891531378030777E-06 35.52581024169922 -0.41498253742853797 -2.9802322387695312E-08 0.6299998462200165 0.6206580102443695 0.6981730163097382
7.709949493408203 -3.9996986389160156 23.525615692138672 0.1221744284654657 -0.9476197957992554 -0.2784564420580864 0.671875 0.8984375
4.985346794128418 -4.072107315063477 23.468223571777344 0.019614569576723234 -0.9767206992421831 -0.1898373972092356 0.671875 0.8984375
6.884092330932617 -4.766063213348389 26.541561126708984 -0.017821740452200176 -0.9836831450462342 -0.09954711198806764 0.671875 0.8984375
-3.0384302139282227 -3.573948860168457 31.864791870117188 0.30641336118181545 -0.7805466453234354 0.463538259267807 0.7552083333333333 0.90625
-3.1363425254821777 3.891997039318085E-06 35.50482177734375 0.39308379093805945 -3.9736429850260414E-08 0.6572890877723694 0.6866142352422078 0.7378982255856196
-4.961885452270508 -2.8113551139831543 33.742530822753906 0.23427452445030214 -0.7546094059944153 0.5821972608566285 0.7468750000000001 0.9046875000000001
-6.025554656982422 -4.397495269775391 30.884597778320312 0.11269377704177583 -0.9490471737725393 0.24474322902304785 0.671875 0.8984375
-13.99884033203125 4.36883419752121E-06 36.62659454345703 -0.3044203892350197 -1.9868214925130207E-08 0.6876945396264393 0.6309082508087158 0.4931236505508423
-10.35101318359375 3.906898200511932E-06 37.59004211425781 -0.04505491442978382 -1.4901161193847656E-08 0.7489572018384933 0.5904092788696289 0.5026112794876099
-10.493762969970703 -2.498379707336426 35.4359130859375 -0.05868701636791229 -0.7350770533084869 0.6344440827767054 0.6709970235824585 0.7029387106498082
-10.01214599609375 -4.525283336639404 31.40665054321289 -0.06956417645726885 -0.9421852486474173 0.2703425000820841 0.6886160714285714 0.9040178571428571
-8.149742126464844 -3.5049538612365723 33.857975006103516 0.1071090266108513 -0.8254571914672852 0.5134252488613129 0.74375 0.9140625
-16.624977111816406 3.906898200511932E-06 23.419330596923828 -0.6048648158709208 0 -0.3668118516604105 0.6828659673531849 0.45489667852719623
-13.95479965209961 -2.2719502449035645 23.896392822265625 -0.4281669954458872 -0.8170037567615509 -0.36606755355993903 0.7110429604848225 0.6458967079718907
-14.457832336425781 3.906898200511932E-06 20.29309844970703 -0.46776679530739784 -1.4901161193847656E-08 -0.40578505396842957 0.6561129540205002 0.4050007089972496
-10.781585693359375 -4.699507236480713 27.84051513671875 -0.11739773241182168 -0.9801355004310608 -0.047874973698829607 0.69140625 0.9049479166666666
-8.949634552001953 -4.741115570068359 29.54439926147461 0.007439407054334879 -0.994029313325882 0.07019897236023098 0.671875 0.8984375
-11.968902587890625 3.891997039318085E-06 17.413955688476562 -0.4401516864697138 -2.9802322387695312E-08 -0.40413650373617804 0.6712059577306111 0.5073040723800659
-8.9443941116333 -1.755947470664978 17.656267166137695 -0.30576985577742255 -0.8696476121743519 -0.362061063448588 0.6506905953089396 0.507498820622762
-9.325675964355469 3.891997039318085E-06 14.674650192260742 -0.3784201219677925 -1.1920928955078125E-07 -0.41345442458987236 0.6607192158699036 0.5158666856586933
-7.0252532958984375 -3.049173355102539 20.10173225402832 -0.1576347288986047 -0.9279509584108988 -0.32714060445626575 0.6492472092310587 0.7160610357920328
-10.808533668518066 -2.131929397583008 20.415109634399414 -0.3590698838233948 -0.8488962153593699 -0.371392160654068 0.6752779086430867 0.6268080522616704
-9.00814151763916 -3.601717472076416 22.553529739379883 -0.2132546380162239 -0.9152520000934601 -0.3267586678266525 0.7109375 0.9114583333333333
-12.020021438598633 -2.5449962615966797 22.6154727935791 -0.3671137928962708 -0.8495469808578492 -0.3696973264217377 0.717913031578064 0.7040679454803467
-10.710735321044922 -4.193461894989014 25.712656021118164 -0.22833023646048137 -0.9280856081417628 -0.2624327806489808 0.7220982142857142 0.9151785714285714
-2.9320619106292725 -2.2986931800842285 15.437420845031738 -0.09470511144692344 -0.9612290433474949 -0.2405343289886202 0.7243303571428571 0.9040178571428571
0.5885308980941772 -2.1468639373779297 14.805624961853027 0.07501193578355014 -0.9690941174825032 -0.22252241025368372 0.7317708333333333 0.9114583333333333
-0.4779612421989441 -1.5588573217391968 11.885576248168945 -0.01915287971496582 -0.9765637318293253 -0.1776850807170073 0.6927083333333333 0.8984375
2.9546709060668945 -1.2578338384628296 11.931100845336914 0.23920104404290515 -0.9357098340988159 -0.20886795346935588 0.7149991095066071 0.8021626422802607
6.118919372558594 -2.4404382705688477 17.781789779663086 0.1812417022883892 -0.923748215039571 -0.3283691157897313 0.7268670996030171 0.8279615044593811
10.012203216552734 3.906898200511932E-06 37.602779388427734 0.09464709212382634 -9.934107462565104E-09 0.7625351945559183 0.5085132718086243 0.639845331509908
-12.980537414550781 -2.392920970916748 34.859710693359375 -0.3079669078191121 -0.7614778776963551 0.5192933231592178 0.6665722330411274 0.6870807707309723
-3.1487464904785156 -3.1867775917053223 19.5341796875 -0.051415761101192656 -0.9623359271458216 -0.25919871245111736 0.7053571428571428 0.9095982142857142
-2.5847983360290527 -3.990861415863037 22.611204147338867 0.004535283039634426 -0.9797295530637105 -0.19506141791741052 0.671875 0.8984375
0.8622211217880249 -3.6878294944763184 21.041519165039062 -0.004702601581811905 -0.9742939472198486 -0.21903623001916067 0.6886160714285714 0.9040178571428571
-3.683774948120117 -0.9862717986106873 11.46005630493164 -0.25759081294139224 -0.9187270899613698 -0.269658541927735 0.7085649172465006 0.7940306216478348
-5.864195823669434 -1.4173129796981812 14.516889572143555 -0.2732491220037142 -0.8951011101404825 -0.3331129550933838 0.6681033670902252 0.5889186958471934
6.3234171867370605 3.906898200511932E-06 11.950074195861816 0.3168600257486105 0 -0.3057537395507097 0.5521319583058357 0.4990975707769394
3.9724647998809814 -1.4432333707809448 14.041397094726562 0.2163284569978714 -0.931409502029419 -0.27459616065025333 0.7204815745353699 0.7944382905960083
3.468080520629883 -3.2500181198120117 19.34661293029785 0.05445760224635402 -0.9601880808671315 -0.2665869817137718 0.7317708333333333 0.9114583333333333
3.516145706176758 -2.3316078186035156 16.51276397705078 0.11294904149447878 -0.9412675102551777 -0.30626146495342255 0.7327053348223368 0.8174270987510681
11.625110626220703 3.891997039318085E-06 17.413894653320312 0.4109755977988243 -5.960464477539063E-08 -0.4334665946662426 0.6279564723372459 0.6852606609463692
9.126559257507324 -2.3038196563720703 19.875064849853516 0.2361625273312841 -0.8964086515562875 -0.3484864575522286 0.7600446428571428 0.9107142857142857
0.5051388740539551 -2.8382720947265625 17.94681739807129 0.008226744442557294 -0.9682607849438984 -0.24561627954244614 0.7135416666666666 0.8984375
5.807187080383301 -3.3782315254211426 20.65433692932129 0.13327031880617143 -0.9478964447975159 -0.2734237372875214 0.71875 0.9140625
9.066768646240234 -4.602381706237793 31.072601318359375 -0.0318082946884845 -0.9710025531905038 0.17292106790202003 0.671875 0.8984375
5.609553337097168 -4.106085300445557 31.654903411865234 -0.17670287117362024 -0.9212800383567811 0.31323752701282503 0.721875 0.8984375
17.789871215820312 3.906898200511932E-06 26.901329040527344 0.6746473237872124 -4.470348358154297E-08 -0.14280922058969736 0.6671520099043846 0.7829319834709167
17.99054718017578 3.891997039318085E-06 30.661773681640625 0.736128568649292 -7.450580596923828E-08 0.13674365170300007 0.40603508055210114 0.5543038845062256
11.050947189331055 -4.674583435058594 29.16061782836914 0.17485777470283212 -0.9699384808540344 0.06443523541092873 0.671875 0.8984375
13.657493591308594 4.36883419752121E-06 36.62944793701172 0.37672245502471924 0 0.6742022037506104 0.4421149715781212 0.5983794182538986
5.277011871337891 -3.126399040222168 33.90699005126953 -0.26621550843119623 -0.7533758163452149 0.5499086916446686 0.7208807110786438 0.8182684063911438
-0.1445302963256836 -3.426084518432617 29.78212547302246 0.04643130271385113 -0.8385708232720692 0.40035934249560035 0.7407068014144897 0.8417869855960209
-6.601660251617432 4.383735358715057E-06 37.052860260009766 0.19056404661387205 -1.4901161193847656E-08 0.7071786969900131 0.702863983809948 0.7587611377239227
-0.14682769775390625 -4.482901096343994 25.863969802856445 -0.007259866156216178 -0.9785450441496713 0.006348308707986559 0.7555803571428571 0.9263392857142857
2.409358024597168 -4.478912353515625 24.80063247680664 -0.005219959343473116 -0.9879102110862732 -0.11053714551962912 0.73046875 0.91796875
-0.1039552092552185 -4.077739715576172 23.482717514038086 -0.021924423053860664 -0.9847143590450287 -0.1669013760983944 0.73046875 0.91796875
-3.2603912353515625 -4.3171844482421875 28.745914459228516 0.12751659688850242 -0.9744493265946705 0.13078895300471532 0.7317708333333333 0.9114583333333333
-6.846198081970215 -4.766063213348389 26.9310245513916 0.014393527526408434 -0.9889254570007324 -0.05295851550181396 0.671875 0.8984375
-16.79302215576172 4.383735358715057E-06 34.09455871582031 -0.6032397945721943 -6.953875223795572E-08 0.49968535701433814 0.6844207048416138 0.542501375079155
-16.021392822265625 -2.6734323501586914 31.858047485351562 -0.5480051736036936 -0.7402176856994629 0.22036619049807388 0.7012003660202026 0.5969223578770955
-18.334091186523438 3.891997039318085E-06 30.66199493408203 -0.7603859702746073 -4.9670537312825516E-08 0.09218287467956543 0.6790391206741333 0.43438655138015747
-12.937061309814453 -4.208425521850586 30.81757926940918 -0.23913764506578447 -0.9292044520378113 0.1951374724507332 0.7453125 0.90625
-15.898567199707031 -2.5679373741149902 27.046119689941406 -0.6081530352433522 -0.7355829179286957 -0.18865661012629667 0.6761453449726105 0.4820551971594492
-18.1336669921875 3.906898200511932E-06 26.901447296142578 -0.7308708727359772 0 -0.1736850831657648 0.7068292200565338 0.5265311747789383
-13.205738067626953 -4.25703763961792 28.568069458007812 -0.34472484389940894 -0.906889796257019 -0.1307218987494707 0.7443088392416636 0.8306798090537388
-7.366324424743652 -1.6033018827438354 16.08810043334961 -0.268153790384531 -0.8840118646621704 -0.3584814816713333 0.5562757253646851 0.2884066104888916
-5.764737129211426 -3.910688877105713 22.333101272583008 -0.05072579552264263 -0.9609982967376709 -0.2610258559385935 0.671875 0.8984375
-7.888362884521484 -4.357935905456543 24.464168548583984 -0.07638010997325183 -0.9688973665237427 -0.21207035779953004 0.671875 0.8984375
-6.6677117347717285 3.906898200511932E-06 11.9496431350708 -0.3521010528008143 -4.9670537312825516E-08 -0.3392426570256551 0.6319692929585774 0.4714304208755493
-3.9570465087890625 -4.402827262878418 24.856748580932617 0.02080196631141007 -0.9877254962921143 -0.11468774395082922 0.69140625 0.9049479166666666
-5.778234004974365 -2.314263343811035 17.482223510742188 -0.16054561113317806 -0.9438662827014923 -0.283186711370945 0.6643943985303242 0.6193148245414097
4.602866172790527 -4.60840368270874 28.546131134033203 -0.11085368932357856 -0.9649672763688223 0.09377195652840392 0.671875 0.8984375
1.8295211791992188 -4.459653377532959 27.44193458557129 -0.08993837954476476 -0.9535241961479187 0.20705795735120774 0.7421875 0.921875
3 74 73 76
3 76 3 78
3 79 4 81
3 7 83 9
3 12 86 14
3 12 14 13
3 89 12 15
3 91 16 20
3 11 17 15
3 21 19 18
3 99 21 22
3 56 102 103
3 26 67 25
3 102 28 108
3 57 28 30
3 111 112 32
3 61 29 30
3 116 37 118
3 36 61 34
3 121 41 123
3 40 41 59
3 58 39 38
3 48 0 2
3 1 3 2
3 3 76 73
3 7 9 8
3 21 134 19
3 31 32 61
3 45 44 47
3 43 65 48
3 141 78 1
3 9 83 141
3 0 1 2
3 48 2 43
3 1 78 3
3 4 43 2
3 4 2 3
3 1 0 5
3 5 141 1
3 52 47 67
3 9 5 51
3 145 83 7
3 14 86 145
3 8 10 7
3 46 47 52
3 9 51 8
3 9 141 5
3 8 6 10
3 10 145 7
3 22 72 23
3 26 13 10
3 89 86 12
3 89 15 151
3 13 15 12
3 26 25 11
3 10 13 14
3 14 145 10
3 16 152 151
3 13 11 15
3 151 17 16
3 91 152 16
3 151 15 17
3 91 20 19
3 53 20 17
3 20 16 17
3 154 91 19
3 19 134 154
3 18 19 20
3 53 18 20
3 99 134 21
3 24 103 99
3 56 103 24
3 21 18 22
3 28 102 55
3 72 53 11
3 22 23 24
3 24 99 22
3 25 72 11
3 56 24 23
3 26 10 6
3 26 11 13
3 57 30 29
3 58 59 39
3 57 29 157
3 60 69 50
3 157 32 112
3 111 32 31
3 32 29 61
3 30 54 27
3 163 111 31
3 163 62 165
3 31 61 33
3 157 29 32
3 62 163 31
3 35 168 165
3 62 33 63
3 30 27 34
3 62 63 35
3 116 168 35
3 37 116 35
3 34 27 36
3 59 121 118
3 63 38 37
3 36 27 38
3 38 63 36
3 37 38 39
3 118 37 39
3 41 64 123
3 45 47 46
3 123 64 65
3 40 59 58
3 66 58 42
3 38 27 42
3 79 173 43
3 4 79 43
3 47 69 67
3 42 27 68
3 45 66 44
3 70 64 41
3 46 48 45
3 51 5 0
3 46 52 51
3 71 25 67
3 46 0 48
3 45 70 40
3 56 23 71
3 28 55 54
3 55 49 60
3 47 44 50
3 8 52 6
3 51 0 46
3 8 51 52
3 52 67 6
3 53 72 18
3 17 11 53
3 30 28 54
3 42 68 66
3 55 60 54
3 56 71 49
3 55 102 56
3 56 49 55
3 108 28 57
3 57 157 108
3 66 40 58
3 58 38 42
3 59 118 39
3 59 41 121
3 68 27 54
3 50 44 60
3 36 33 61
3 61 30 34
3 62 35 165
3 62 31 33
3 63 37 35
3 33 36 63
3 123 65 173
3 70 45 48
3 43 173 65
3 65 70 48
3 45 40 66
3 44 68 60
3 26 6 67
3 71 67 69
3 44 66 68
3 68 54 60
3 60 49 69
3 47 50 69
3 70 41 40
3 65 64 70
3 71 69 49
3 72 25 71
3 22 18 72
3 72 71 23
3 74 81 73
3 73 4 3
3 73 81 4
3 74 76 75
3 76 78 77
3 79 81 80
3 82 84 83
3 85 87 86
3 85 88 87
3 89 90 85
3 91 93 92
3 94 90 95
3 96 98 97
3 99 100 96
3 101 103 102
3 104 106 105
3 102 108 107
3 109 110 107
3 111 113 112
3 114 110 115
3 116 118 117
3 119 120 114
3 121 123 122
3 124 125 122
3 126 128 127
3 129 131 130
3 132 131 77
3 77 75 76
3 82 133 84
3 96 97 134
3 135 114 113
3 136 138 137
3 139 129 140
3 141 132 78
3 84 141 83
3 130 131 132
3 129 139 131
3 132 77 78
3 80 131 139
3 80 77 131
3 132 142 130
3 142 132 141
3 143 105 138
3 84 144 142
3 145 82 83
3 87 145 86
3 133 82 146
3 147 143 138
3 84 133 144
3 84 142 141
3 133 146 148
3 146 82 145
3 100 150 149
3 104 146 88
3 89 85 86
3 89 151 90
3 88 85 90
3 104 94 106
3 146 87 88
3 87 146 145
3 92 151 152
3 88 90 94
3 151 92 95
3 91 92 152
3 151 95 90
3 91 97 93
3 153 95 93
3 93 95 92
3 154 97 91
3 97 154 134
3 98 93 97
3 153 93 98
3 99 96 134
3 155 99 103
3 101 155 103
3 96 100 98
3 107 156 102
3 149 94 153
3 100 155 150
3 155 100 99
3 106 94 149
3 101 150 155
3 104 148 146
3 104 88 94
3 109 115 110
3 126 127 125
3 109 157 115
3 158 160 159
3 157 112 113
3 111 135 113
3 113 114 115
3 110 162 161
3 163 135 111
3 163 165 164
3 135 166 114
3 157 113 115
3 164 135 163
3 167 165 168
3 164 169 166
3 110 120 162
3 164 167 169
3 116 167 168
3 117 167 116
3 120 119 162
3 125 118 121
3 169 117 128
3 119 128 162
3 128 119 169
3 117 127 128
3 118 127 117
3 122 123 170
3 136 147 138
3 123 140 170
3 124 126 125
3 171 172 126
3 128 172 162
3 79 139 173
3 80 139 79
3 138 105 159
3 172 174 162
3 136 137 171
3 175 122 170
3 147 136 129
3 144 130 142
3 147 144 143
3 176 105 106
3 147 129 130
3 136 124 175
3 101 176 150
3 107 161 156
3 156 158 177
3 138 160 137
3 133 148 143
3 144 147 130
3 133 143 144
3 143 148 105
3 153 98 149
3 95 153 94
3 110 161 107
3 172 171 174
3 156 161 158
3 101 177 176
3 156 101 102
3 101 156 177
3 108 109 107
3 109 108 157
3 171 126 124
3 126 172 128
3 125 127 118
3 125 121 122
3 174 161 162
3 160 158 137
3 119 114 166
3 114 120 110
3 164 165 167
3 164 166 135
3 169 167 117
3 166 169 119
3 123 173 140
3 175 129 136
3 139 140 173
3 140 129 175
3 136 171 124
3 137 158 174
3 104 105 148
3 176 159 105
3 137 174 171
3 174 158 161
3 158 159 177
3 138 159 160
3 175 124 122
3 140 175 170
3 176 177 159
3 149 176 106
3 100 149 98
3 149 150 176
3 74 75 81
3 75 77 80
3 75 80 81
